<svg width="88" height="13" viewBox="0 0 88 13" fill="none" xmlns="http://www.w3.org/2000/svg">
<path d="M87.2499 10.6001C87.5813 10.462 87.7381 10.0815 87.6001 9.75012L85.3512 4.34966C85.2132 4.01826 84.8326 3.86149 84.5012 3.99949C84.1698 4.13749 84.0131 4.51802 84.1511 4.84942L86.1501 9.64983L81.3497 11.6488C81.0183 11.7868 80.8615 12.1674 80.9995 12.4988C81.1375 12.8302 81.518 12.9869 81.8494 12.8489L87.2499 10.6001ZM87.2476 9.39901C63.3203 -0.45915 34.3426 -4.69025 0.748581 9.40059L1.25142 10.5994C34.4609 -3.33014 63.0726 0.84482 86.7524 10.601L87.2476 9.39901Z" fill="#2D2B35"/>
</svg>
