<svg width="20" height="20" viewBox="0 0 20 20" fill="none" xmlns="http://www.w3.org/2000/svg">
<path fill-rule="evenodd" clip-rule="evenodd" d="M5.17665 2.00001L5.17857 2L14.8233 2C15.419 2.00202 15.9898 2.27062 16.411 2.74714C16.8322 3.22366 17.0696 3.86938 17.0714 4.54329L17.0714 4.54546L17.0714 8.85201C17.4353 9.03243 17.77 9.28911 18.0563 9.61304C18.6582 10.294 18.9975 11.2167 19 12.1797L19 12.1818L19 17.2727C19 17.6744 18.7122 18 18.3571 18C18.0021 18 17.7143 17.6744 17.7143 17.2727V12.1828C17.7125 11.6045 17.5087 11.0505 17.1472 10.6416C16.7857 10.2326 16.2959 10.002 15.7847 10H4.21529C3.70408 10.002 3.2143 10.2326 2.8528 10.6416C2.49131 11.0505 2.28746 11.6046 2.28571 12.183V17.2727C2.28571 17.6744 1.9979 18 1.64286 18C1.28782 18 1 17.6744 1 17.2727V12.1818L1 12.1797C1.00252 11.2167 1.34177 10.294 1.94367 9.61304C2.22999 9.28911 2.56469 9.03243 2.92857 8.85201V4.54329C2.93035 3.86938 3.16777 3.22366 3.58899 2.74714C4.0102 2.27062 4.58097 2.00202 5.17665 2.00001ZM4.21429 8.54546H15.7857V4.54656C15.7847 4.25731 15.6827 3.98021 15.5019 3.77566C15.321 3.57107 15.0761 3.45566 14.8203 3.45455H5.17965C4.92394 3.45566 4.67896 3.57108 4.49812 3.77566C4.31729 3.98024 4.21527 4.25739 4.21429 4.54668V8.54546Z" fill="#8D1BCD"/>
<path fill-rule="evenodd" clip-rule="evenodd" d="M5.4982 6.00001L5.5 6L8.71608 6C9.19124 6.00156 9.64794 6.20725 10 6.57527C10.3521 6.20725 10.8088 6.00156 11.2839 6.00001L11.2857 6L14.5018 6C15.0124 6.00167 15.5016 6.23904 15.8626 6.66024C16.2237 7.08144 16.4271 7.65224 16.4286 8.2479L16.4286 8.25L16.4286 9C16.4286 9.41422 16.1408 9.75 15.7857 9.75C15.4307 9.75 15.1429 9.41422 15.1429 9V8.25125C15.1422 8.05226 15.0741 7.86163 14.9535 7.7209C14.8329 7.58018 14.6695 7.50079 14.4989 7.5H11.2868C11.1162 7.50079 10.9528 7.58018 10.8322 7.7209C10.7116 7.86163 10.6435 8.05226 10.6429 8.25125V9C10.6429 9.41422 10.355 9.75 10 9.75C9.64496 9.75 9.35714 9.41422 9.35714 9V8.25125C9.35647 8.05226 9.28842 7.86163 9.1678 7.7209C9.04718 7.58018 8.88379 7.50079 8.71323 7.5H5.50106C5.3305 7.50079 5.1671 7.58018 5.04648 7.7209C4.92586 7.86163 4.85781 8.05226 4.85714 8.25125V9C4.85714 9.41422 4.56933 9.75 4.21429 9.75C3.85924 9.75 3.57143 9.41422 3.57143 9V8.2479C3.57286 7.65224 3.77632 7.08144 4.13735 6.66024C4.49838 6.23904 4.98763 6.00167 5.4982 6.00001ZM2.60528 15L2.60714 15L17.3947 15C17.8201 15.0014 18.2277 15.1992 18.5285 15.5501C18.8292 15.901 18.9988 16.3766 19 16.8728L19 16.875L19 17.25C19 17.6642 18.7122 18 18.3571 18C18.0021 18 17.7143 17.6642 17.7143 17.25V16.8763C17.7138 16.7766 17.6797 16.6812 17.6193 16.6108C17.5589 16.5403 17.4771 16.5005 17.3916 16.5H2.60838C2.52294 16.5005 2.4411 16.5403 2.38068 16.6108C2.32026 16.6813 2.28614 16.7767 2.28571 16.8764V17.25C2.28571 17.6642 1.9979 18 1.64286 18C1.28782 18 1 17.6642 1 17.25V16.875L1 16.8728C1.00124 16.3766 1.17076 15.901 1.47154 15.5501C1.77232 15.1992 2.17991 15.0014 2.60528 15Z" fill="url(#paint0_linear_1630_11385)"/>
<defs>
<linearGradient id="paint0_linear_1630_11385" x1="10" y1="16.75" x2="10" y2="12.25" gradientUnits="userSpaceOnUse">
<stop offset="0.34375" stop-color="#8D1BCD"/>
<stop offset="1" stop-color="#312A3C" stop-opacity="0"/>
</linearGradient>
</defs>
</svg>
