<svg width="20" height="20" viewBox="0 0 20 20" fill="none" xmlns="http://www.w3.org/2000/svg">
<path fill-rule="evenodd" clip-rule="evenodd" d="M6.87319 5.26508e-06L6.875 0L15.6268 2.63254e-06C16.2888 0.00192761 16.9231 0.265745 17.3912 0.733829C17.8593 1.20191 18.1231 1.83622 18.125 2.49819L18.125 2.5L18.125 16.875C18.125 17.1153 17.9873 17.3342 17.7707 17.4383C17.5542 17.5424 17.2972 17.5131 17.1096 17.363L13.9846 14.863L14.7654 13.887L16.875 15.5746V2.50107C16.8738 2.16964 16.7417 1.85209 16.5073 1.61771C16.2729 1.38335 15.9554 1.25118 15.624 1.25H6.876C6.54459 1.25118 6.22707 1.38335 5.99271 1.61771C5.75835 1.85207 5.62618 2.16959 5.625 2.501V3.125H4.375V2.49819C4.37692 1.83622 4.64074 1.20191 5.10883 0.733829C5.57691 0.265745 6.21122 0.00192761 6.87319 5.26508e-06Z" fill="#8D1BCD"/>
<path fill-rule="evenodd" clip-rule="evenodd" d="M4.37318 3.12501L4.375 3.125L12.5018 3.125C13.1638 3.12693 13.7981 3.39075 14.2662 3.85883C14.7343 4.32691 14.9981 4.96122 15 5.62319L15 5.625L15 19.375C15 19.6181 14.859 19.8391 14.6386 19.9417C14.4182 20.0442 14.1584 20.0097 13.9724 19.8531L8.4375 15.1921L2.90258 19.8531C2.71664 20.0097 2.45677 20.0442 2.23636 19.9417C2.01595 19.8391 1.875 19.6181 1.875 19.375V5.62319C1.87692 4.96122 2.14074 4.32691 2.60883 3.85883C3.07691 3.39075 3.71122 3.12693 4.37318 3.12501ZM4.376 4.375C4.04459 4.37618 3.72707 4.50835 3.49271 4.74271C3.25835 4.97707 3.12618 5.29459 3.125 5.626V18.0316L8.03491 13.8969C8.26756 13.701 8.60744 13.701 8.84008 13.8969L13.75 18.0316V5.62607C13.7488 5.29463 13.6167 4.97709 13.3823 4.74271C13.1479 4.50835 12.8304 4.37618 12.499 4.375H4.376Z" fill="#8D1BCD"/>
</svg>
