<svg width="20" height="20" viewBox="0 0 20 20" fill="none" xmlns="http://www.w3.org/2000/svg">
<path fill-rule="evenodd" clip-rule="evenodd" d="M2.5 13.75C2.27786 13.75 1.875 14.0325 1.875 14.6875C1.875 15.3425 2.27786 15.625 2.5 15.625H13.125C13.3471 15.625 13.75 15.3425 13.75 14.6875C13.75 14.0325 13.3471 13.75 13.125 13.75C12.7798 13.75 12.5 13.4702 12.5 13.125C12.5 12.7798 12.7798 12.5 13.125 12.5C14.2833 12.5 15 13.6168 15 14.6875C15 15.7492 14.2954 16.856 13.1544 16.8748C13.0627 17.4497 12.8409 17.9846 12.4838 18.4162C11.9899 19.0131 11.266 19.375 10.3906 19.375H5.23438C4.35897 19.375 3.63506 19.0131 3.14124 18.4162C2.78412 17.9846 2.56232 17.4497 2.47061 16.8748C1.32956 16.856 0.625 15.7492 0.625 14.6875C0.625 13.6168 1.34167 12.5 2.5 12.5C2.84518 12.5 3.125 12.7798 3.125 13.125C3.125 13.4702 2.84518 13.75 2.5 13.75ZM3.74468 16.875C3.81802 17.1722 3.94327 17.4247 4.10437 17.6194C4.35908 17.9273 4.72892 18.125 5.23438 18.125H10.3906C10.8961 18.125 11.2659 17.9273 11.5206 17.6194C11.6817 17.4247 11.807 17.1722 11.8803 16.875H3.74468Z" fill="#8D1BCD"/>
<path fill-rule="evenodd" clip-rule="evenodd" d="M9.34186 3.75418C9.68473 3.71431 9.995 3.95993 10.0349 4.30279L10.3255 6.80162C10.3322 6.85937 10.3308 6.9162 10.3223 6.97096C11.0838 7.10814 11.7873 7.39435 12.3617 7.84198C13.1947 8.49112 13.7147 9.4502 13.7483 10.6562C14.0469 10.7168 14.3237 10.864 14.5424 11.0826C14.8354 11.3757 15 11.7731 15 12.1875C15 12.6019 14.8354 12.9993 14.5424 13.2924C14.2493 13.5854 13.8519 13.75 13.4375 13.75H7.13388L6.17773 14.7061C6.17765 14.7062 6.17782 14.7061 6.17773 14.7061C6.10522 14.7787 6.0189 14.8365 5.92417 14.8757C5.82932 14.915 5.72766 14.9353 5.625 14.9353C5.52234 14.9353 5.42068 14.915 5.32583 14.8757C5.2311 14.8365 5.14502 14.7789 5.07251 14.7064C5.07243 14.7063 5.07259 14.7065 5.07251 14.7064L4.11612 13.75H2.1875C1.7731 13.75 1.37567 13.5854 1.08265 13.2924C0.78962 12.9993 0.625 12.6019 0.625 12.1875C0.625 11.7731 0.78962 11.3757 1.08265 11.0826C1.30126 10.864 1.57798 10.7169 1.8765 10.6563C1.90785 9.44605 2.42859 8.48563 3.26421 7.83696C4.10853 7.18154 5.2313 6.875 6.40625 6.875H9.07561L8.79325 4.4472C8.75337 4.10433 8.99899 3.79406 9.34186 3.75418ZM3.12836 10.625H12.4962C12.4571 9.82196 12.1146 9.23413 11.5934 8.82794C11.0214 8.38221 10.1912 8.125 9.21875 8.125H6.40625C5.43277 8.125 4.60241 8.38057 4.03071 8.82437C3.50829 9.22991 3.1655 9.81807 3.12836 10.625ZM2.1875 11.875C2.10462 11.875 2.02513 11.9079 1.96653 11.9665C1.90792 12.0251 1.875 12.1046 1.875 12.1875C1.875 12.2704 1.90792 12.3499 1.96653 12.4085C2.02513 12.4671 2.10462 12.5 2.1875 12.5H4.2457C4.49401 12.5001 4.73242 12.5987 4.9081 12.7742L5.625 13.4911L6.34165 12.7745C6.51733 12.599 6.7557 12.5001 7.00401 12.5H13.4375C13.5204 12.5 13.5999 12.4671 13.6585 12.4085C13.7171 12.3499 13.75 12.2704 13.75 12.1875C13.75 12.1046 13.7171 12.0251 13.6585 11.9665C13.5999 11.9079 13.5204 11.875 13.4375 11.875H2.1875ZM5.29336 13.8228C5.29328 13.8228 5.29344 13.8227 5.29336 13.8228V13.8228ZM5.95664 13.8228C5.95656 13.8227 5.95672 13.8228 5.95664 13.8228V13.8228Z" fill="#8D1BCD"/>
<path fill-rule="evenodd" clip-rule="evenodd" d="M18.1517 3.75345C18.4949 3.78975 18.7438 4.09744 18.7075 4.44071L17.3107 17.6505C17.273 18.1183 17.0613 18.5551 16.7171 18.8744C16.3704 19.1962 15.9148 19.375 15.4418 19.375H10C9.65482 19.375 9.375 19.0952 9.375 18.75C9.375 18.4048 9.65482 18.125 10 18.125H15.4418C15.5995 18.125 15.7513 18.0654 15.8669 17.9581C15.9825 17.8509 16.0533 17.7039 16.065 17.5467L16.0657 17.5371L17.4644 4.30927C17.5007 3.96601 17.8084 3.71716 18.1517 3.75345Z" fill="#8D1BCD"/>
<path fill-rule="evenodd" clip-rule="evenodd" d="M17.4277 1.04857C17.539 1.37533 17.3643 1.7304 17.0375 1.84164L15.5239 2.35691L14.9815 4.52657C14.8978 4.86144 14.5584 5.06504 14.2236 4.98133C13.8887 4.89761 13.6851 4.55827 13.7688 4.2234L14.3938 1.7234C14.4453 1.51747 14.5978 1.35174 14.7987 1.28333L16.6347 0.658331C16.9614 0.547092 17.3165 0.721809 17.4277 1.04857Z" fill="#8D1BCD"/>
<path fill-rule="evenodd" clip-rule="evenodd" d="M8.125 4.375C8.125 4.02982 8.40482 3.75 8.75 3.75H18.75C19.0952 3.75 19.375 4.02982 19.375 4.375C19.375 4.72018 19.0952 5 18.75 5H8.75C8.40482 5 8.125 4.72018 8.125 4.375Z" fill="#8D1BCD"/>
</svg>
