<svg width="24" height="24" viewBox="0 0 24 24" fill="none" xmlns="http://www.w3.org/2000/svg">
<path fill-rule="evenodd" clip-rule="evenodd" d="M12.0713 1.49609C12.9241 1.49566 13.7689 1.66172 14.5582 1.98497C16.8755 2.93007 18.2574 4.24436 18.6251 4.60898L18.6275 4.61134C19.0438 5.02778 19.4292 5.47397 19.7806 5.94636L19.7896 5.95867C19.9652 6.20492 20.0219 6.46487 20.0391 6.66938C20.0539 6.8458 20.041 7.02186 20.033 7.13177C20.0323 7.14107 20.0317 7.14989 20.0311 7.1582C20.0301 7.17251 20.0292 7.18581 20.0284 7.19818C20.0971 7.14799 20.172 7.10655 20.2515 7.07498C20.3705 7.02765 20.4974 7.00338 20.6255 7.0034C20.7564 7.0019 20.8864 7.02601 21.0082 7.07441C21.1346 7.12466 21.2495 7.20006 21.3459 7.29601C21.3464 7.2965 21.3469 7.29699 21.3474 7.29748L22.9534 8.88899C22.9591 8.89465 22.9647 8.90041 22.9703 8.90626C23.15 9.09619 23.2501 9.34774 23.2501 9.60922C23.2501 9.8707 23.15 10.1223 22.9703 10.3122C22.9646 10.3182 22.9588 10.3241 22.9529 10.33L20.3461 12.9081C20.157 13.0902 19.9047 13.1918 19.6424 13.1919C19.5121 13.1933 19.3828 13.1694 19.2615 13.1215C19.1356 13.0717 19.0209 12.9971 18.9245 12.9021L18.9229 12.9005L17.3164 11.3086C17.316 11.3082 17.3156 11.3078 17.3152 11.3074C17.2205 11.2139 17.1452 11.1025 17.0938 10.9797C17.0422 10.8564 17.0155 10.724 17.0155 10.5903C17.0155 10.4566 17.0422 10.3242 17.0938 10.2009C17.1455 10.0776 17.2211 9.9658 17.3164 9.87202L17.3274 9.86145L17.4125 9.78098C17.4215 9.77114 17.4269 9.75787 17.4273 9.74396C17.4274 9.74026 17.4271 9.7374 17.4267 9.73539C17.2645 9.64533 17.0788 9.60615 16.8939 9.62309C16.8156 9.63226 16.5584 9.68002 16.2093 9.89493C15.8303 10.1283 15.0776 10.7768 14.4248 11.4099L14.4201 11.4146C14.2572 11.5698 14.0527 11.6715 13.8338 11.7089C13.8719 11.9062 13.8763 12.1097 13.8457 12.3107C13.7896 12.6787 13.6189 13.0197 13.3579 13.2851L13.349 13.2942C13.2392 13.4021 13.0986 13.5419 12.9155 13.7242C12.8492 13.7902 12.7773 13.8618 12.6993 13.9393C12.4075 14.2296 12.0338 14.6005 11.555 15.0716C9.71526 16.8896 6.58766 20.3697 5.22455 21.9719L5.22273 21.9741C5.08755 22.1318 4.9212 22.2598 4.73416 22.3501C4.54711 22.4404 4.3434 22.4911 4.13584 22.4989C3.92827 22.5067 3.72133 22.4715 3.52804 22.3955C3.33474 22.3194 3.15925 22.2043 3.01261 22.0572L3.01054 22.0551L1.18324 20.2076C1.18317 20.2076 1.18332 20.2077 1.18324 20.2076C1.03707 20.0602 0.92286 19.8839 0.848261 19.6902C0.773625 19.4964 0.740046 19.2892 0.749652 19.0817C0.759259 18.8743 0.811839 18.6711 0.904067 18.485C0.996117 18.2993 1.12566 18.1347 1.28451 18.0015C2.85495 16.6788 6.33373 13.5719 8.19786 11.7278C8.98582 10.9492 9.49353 10.45 9.81731 10.1316C9.89779 10.0525 9.96692 9.9845 10.0262 9.92615C10.2738 9.68064 10.5898 9.51561 10.9328 9.4527C11.1328 9.416 11.3366 9.41505 11.535 9.44875C11.5659 9.234 11.6589 9.03131 11.8047 8.86674C12.1517 8.47484 12.4833 8.06548 12.7211 7.67659C12.9715 7.26704 13.0515 6.98529 13.0438 6.82466C13.0003 5.92748 12.7367 5.34041 12.1893 4.89997C11.843 4.62961 11.1096 4.33623 10.5135 4.28681C10.2236 4.26262 9.93135 4.28099 9.64682 4.34141C9.50699 4.3738 9.36926 4.41469 9.2344 4.46385C8.92473 4.57675 8.57763 4.47423 8.379 4.21119C8.18037 3.94814 8.17675 3.58624 8.3701 3.31929L8.97752 3.75922C8.3701 3.31929 8.37006 3.31934 8.3701 3.31929L8.37085 3.31825L8.37204 3.31662L8.37565 3.31168L8.38769 3.29532C8.39779 3.2817 8.41197 3.26271 8.42966 3.23945C8.46489 3.19312 8.51468 3.12897 8.57417 3.05601C8.68818 2.91621 8.8563 2.72114 9.03557 2.55874C9.5072 2.12871 10.6327 1.49622 12.0713 1.49609ZM11.7109 3.01519C12.2485 3.18787 12.7598 3.44076 13.1185 3.72248L13.1246 3.72723C14.0947 4.50525 14.4836 5.54752 14.5421 6.75236C14.5719 7.37407 14.295 7.97781 14.0009 8.459C13.759 8.85461 13.4589 9.24107 13.1634 9.58947L13.65 10.0759C14.2552 9.50714 14.9605 8.90225 15.4229 8.61758C15.9798 8.27478 16.4555 8.16191 16.7358 8.13143L16.7446 8.13047C17.2474 8.08178 17.7529 8.19148 18.1904 8.44412C18.3029 8.50845 18.4058 8.58818 18.4962 8.68102C19.0114 9.20625 19.049 9.98609 18.6939 10.5619L19.6386 11.4981L21.5488 9.60888L20.5647 8.63364C20.5367 8.64554 20.5081 8.65646 20.4792 8.66637C20.2953 8.72933 20.0996 8.74974 19.9067 8.72611C19.6358 8.69576 19.2151 8.60208 18.8951 8.29245L18.8916 8.28911C18.6561 8.05831 18.5685 7.78411 18.5385 7.56356C18.5121 7.37003 18.5259 7.17765 18.534 7.06353L18.5349 7.05188C18.5461 6.89421 18.5444 6.82286 18.5444 6.79786C18.2456 6.40057 17.9193 6.02469 17.5678 5.67301C17.2717 5.37951 16.0527 4.21436 13.9912 3.3737L13.9901 3.37324C13.3813 3.12383 12.7296 2.99571 12.0717 2.99609C11.9477 2.99609 11.827 3.00289 11.7109 3.01519ZM20.2893 8.3607C20.2885 8.35996 20.2878 8.35921 20.287 8.35846L20.2893 8.3607ZM12.9277 9.86122C12.9281 9.86067 12.9286 9.86013 12.9291 9.85958ZM12.281 11.8513L11.4171 10.9992C11.3944 10.9761 11.3677 10.9573 11.3382 10.9439C11.2959 10.9253 11.2489 10.9197 11.2034 10.9281C11.1575 10.9365 11.1152 10.9586 11.0822 10.9915L11.0796 10.9941C11.0197 11.053 10.9499 11.1217 10.8686 11.2016C10.5447 11.52 10.0389 12.0174 9.25248 12.7944C7.3519 14.6746 3.84104 17.8095 2.24988 19.1496L2.24805 19.1511L4.07493 20.9982C4.07499 20.9982 4.07487 20.9981 4.07493 20.9982C4.07549 20.9987 4.07631 20.9993 4.07702 20.9995C4.0778 20.9998 4.07864 21 4.07948 21C4.07996 20.9999 4.08044 20.9999 4.08091 20.9997C4.08125 20.9996 4.08158 20.9995 4.0819 20.9993C4.08256 20.999 4.08316 20.9986 4.08367 20.9981C5.46255 19.3774 8.61971 15.8633 10.5011 14.0042L10.5023 14.003C10.9789 13.5341 11.3508 13.1651 11.6415 12.8759C11.7173 12.8005 11.7878 12.7302 11.8535 12.6649C12.035 12.4842 12.1788 12.341 12.2914 12.2303C12.3295 12.1902 12.3544 12.1394 12.3628 12.0847C12.3709 12.0318 12.363 11.9777 12.3403 11.9293C12.3237 11.901 12.3038 11.8749 12.281 11.8513Z" fill="white" fill-opacity="0.5"/>
</svg>
