<svg width="21" height="20" viewBox="0 0 21 20" fill="none" xmlns="http://www.w3.org/2000/svg">
<path d="M14.2832 1.66699H5.94987C3.64868 1.66699 1.7832 3.53247 1.7832 5.83366V14.167C1.7832 16.4682 3.64868 18.3337 5.94987 18.3337H14.2832C16.5844 18.3337 18.4499 16.4682 18.4499 14.167V5.83366C18.4499 3.53247 16.5844 1.66699 14.2832 1.66699Z" stroke="white" stroke-linecap="round" stroke-linejoin="round"/>
<path d="M13.4509 9.47525C13.5538 10.1688 13.4353 10.8771 13.1124 11.4994C12.7895 12.1218 12.2785 12.6264 11.6523 12.9416C11.026 13.2569 10.3163 13.3666 9.62408 13.2552C8.93187 13.1438 8.2924 12.817 7.79663 12.3212C7.30086 11.8255 6.97404 11.186 6.86265 10.4938C6.75126 9.80154 6.86098 9.09183 7.1762 8.46556C7.49142 7.8393 7.99608 7.32837 8.61842 7.00545C9.24075 6.68254 9.94906 6.56407 10.6426 6.66692C11.35 6.77182 12.005 7.10147 12.5107 7.60717C13.0164 8.11288 13.346 8.76782 13.4509 9.47525Z" stroke="white" stroke-linecap="round" stroke-linejoin="round"/>
<path d="M14.7012 5.41699H14.7095" stroke="white" stroke-linecap="round" stroke-linejoin="round"/>
</svg>
