<svg width="139" height="34" viewBox="0 0 139 34" fill="none" xmlns="http://www.w3.org/2000/svg">
<path d="M31.0352 21.5839V15.1467L28.5211 19.94H27.4575L24.9434 15.1467V21.5839H23.0371V11.7762H25.0815L27.9824 17.3569L30.9109 11.7762H32.9415V21.5839H31.0352Z" fill="#8D1BCD"/>
<path d="M38.0311 21.722C37.4417 21.722 36.9122 21.6253 36.4425 21.4319C35.9729 21.2293 35.5723 20.953 35.2407 20.6031C34.9184 20.2531 34.6698 19.8525 34.4948 19.4013C34.3198 18.95 34.2323 18.4758 34.2323 17.9785C34.2323 17.472 34.3198 16.9931 34.4948 16.5419C34.6698 16.0906 34.9184 15.69 35.2407 15.3401C35.5723 14.9901 35.9729 14.7185 36.4425 14.5251C36.9122 14.3225 37.4417 14.2212 38.0311 14.2212C38.6205 14.2212 39.1454 14.3225 39.6058 14.5251C40.0755 14.7185 40.4761 14.9901 40.8076 15.3401C41.1392 15.69 41.3878 16.0906 41.5536 16.5419C41.7285 16.9931 41.816 17.472 41.816 17.9785C41.816 18.4758 41.7285 18.95 41.5536 19.4013C41.3878 19.8525 41.1392 20.2531 40.8076 20.6031C40.4853 20.953 40.0893 21.2293 39.6197 21.4319C39.15 21.6253 38.6205 21.722 38.0311 21.722ZM36.1386 17.9785C36.1386 18.4021 36.2215 18.7797 36.3873 19.1112C36.553 19.4335 36.7786 19.6868 37.0641 19.871C37.3496 20.0551 37.6719 20.1472 38.0311 20.1472C38.381 20.1472 38.6987 20.0551 38.9842 19.871C39.2697 19.6776 39.4953 19.4197 39.6611 19.0974C39.8361 18.7659 39.9236 18.3883 39.9236 17.9647C39.9236 17.5503 39.8361 17.1773 39.6611 16.8458C39.4953 16.5142 39.2697 16.2564 38.9842 16.0722C38.6987 15.888 38.381 15.7959 38.0311 15.7959C37.6719 15.7959 37.3496 15.8926 37.0641 16.086C36.7786 16.2702 36.553 16.5281 36.3873 16.8596C36.2215 17.1819 36.1386 17.5549 36.1386 17.9785Z" fill="#8D1BCD"/>
<path d="M43.0654 21.5839V14.3593H44.9164V19.1112L48.1627 14.3455H49.8479V21.5839H47.9969V16.9425L44.7921 21.5839H43.0654ZM46.4636 13.6686C45.7545 13.6686 45.1973 13.489 44.7921 13.1299C44.3869 12.7615 44.1843 12.2919 44.1843 11.7209H45.3309C45.3309 11.9972 45.4229 12.2274 45.6071 12.4116C45.7913 12.5958 46.0768 12.6879 46.4636 12.6879C46.8504 12.6879 47.1266 12.6004 47.2924 12.4254C47.4674 12.2504 47.5733 12.0156 47.6101 11.7209H48.7566C48.7566 12.2919 48.554 12.7615 48.1488 13.1299C47.7436 13.489 47.1819 13.6686 46.4636 13.6686Z" fill="#8D1BCD"/>
<path d="M54.8556 21.5839V14.3455H61.348V21.5839H59.497V15.9617H56.7066V21.5839H54.8556Z" fill="#8D1BCD"/>
<path d="M67.368 21.722C66.8062 21.722 66.3089 21.5977 65.8761 21.349C65.4525 21.0912 65.1209 20.7458 64.8815 20.313V24.5262H63.0305V14.3455H64.6467V15.5887C64.9229 15.1651 65.2729 14.8336 65.6965 14.5941C66.1201 14.3455 66.6036 14.2212 67.1469 14.2212C67.635 14.2212 68.0817 14.3179 68.4869 14.5113C68.9013 14.7046 69.2604 14.9763 69.5643 15.3263C69.8682 15.667 70.1031 16.063 70.2688 16.5142C70.4438 16.9563 70.5313 17.4351 70.5313 17.9509C70.5313 18.6508 70.3932 19.2862 70.1169 19.8571C69.8498 20.4281 69.4769 20.884 68.998 21.2247C68.5283 21.5562 67.985 21.722 67.368 21.722ZM66.7463 20.1472C67.0318 20.1472 67.2897 20.0874 67.5199 19.9677C67.7501 19.8479 67.9481 19.6868 68.1139 19.4842C68.2889 19.2724 68.4178 19.0375 68.5007 18.7797C68.5928 18.5126 68.6388 18.2363 68.6388 17.9509C68.6388 17.647 68.5882 17.3661 68.4869 17.1082C68.3948 16.8504 68.2566 16.6247 68.0725 16.4314C67.8883 16.2288 67.6719 16.0722 67.4232 15.9617C67.1838 15.8512 66.9213 15.7959 66.6358 15.7959C66.4609 15.7959 66.2813 15.8282 66.0971 15.8926C65.9221 15.9479 65.7518 16.0308 65.586 16.1413C65.4202 16.2518 65.2729 16.3807 65.144 16.5281C65.0242 16.6754 64.9368 16.8366 64.8815 17.0115V18.7106C64.992 18.9777 65.1394 19.2217 65.3235 19.4427C65.5169 19.6638 65.738 19.8387 65.9866 19.9677C66.2352 20.0874 66.4885 20.1472 66.7463 20.1472Z" fill="#8D1BCD"/>
<path d="M75.1283 21.722C74.5389 21.722 74.0094 21.6253 73.5398 21.4319C73.0701 21.2293 72.6695 20.953 72.338 20.6031C72.0157 20.2531 71.767 19.8525 71.592 19.4013C71.4171 18.95 71.3296 18.4758 71.3296 17.9785C71.3296 17.472 71.4171 16.9931 71.592 16.5419C71.767 16.0906 72.0157 15.69 72.338 15.3401C72.6695 14.9901 73.0701 14.7185 73.5398 14.5251C74.0094 14.3225 74.5389 14.2212 75.1283 14.2212C75.7177 14.2212 76.2426 14.3225 76.7031 14.5251C77.1728 14.7185 77.5733 14.9901 77.9049 15.3401C78.2364 15.69 78.4851 16.0906 78.6508 16.5419C78.8258 16.9931 78.9133 17.472 78.9133 17.9785C78.9133 18.4758 78.8258 18.95 78.6508 19.4013C78.4851 19.8525 78.2364 20.2531 77.9049 20.6031C77.5826 20.953 77.1866 21.2293 76.7169 21.4319C76.2472 21.6253 75.7177 21.722 75.1283 21.722ZM73.2359 17.9785C73.2359 18.4021 73.3187 18.7797 73.4845 19.1112C73.6503 19.4335 73.8759 19.6868 74.1614 19.871C74.4469 20.0551 74.7692 20.1472 75.1283 20.1472C75.4783 20.1472 75.796 20.0551 76.0815 19.871C76.367 19.6776 76.5926 19.4197 76.7583 19.0974C76.9333 18.7659 77.0208 18.3883 77.0208 17.9647C77.0208 17.5503 76.9333 17.1773 76.7583 16.8458C76.5926 16.5142 76.367 16.2564 76.0815 16.0722C75.796 15.888 75.4783 15.7959 75.1283 15.7959C74.7692 15.7959 74.4469 15.8926 74.1614 16.086C73.8759 16.2702 73.6503 16.5281 73.4845 16.8596C73.3187 17.1819 73.2359 17.5549 73.2359 17.9785Z" fill="#8D1BCD"/>
<path d="M83.5332 24.5262V21.5839H83.326C82.5616 21.5839 81.9078 21.4181 81.3644 21.0866C80.8303 20.7458 80.4205 20.3038 80.135 19.7605C79.8495 19.2079 79.7068 18.6139 79.7068 17.9785C79.7068 17.3246 79.8495 16.726 80.135 16.1827C80.4297 15.6302 80.8441 15.1881 81.3783 14.8566C81.9216 14.5251 82.5708 14.3593 83.326 14.3593H83.5332V11.4999H85.3842V14.3593H85.6052C86.3604 14.3593 87.0096 14.5251 87.553 14.8566C88.0963 15.1881 88.5107 15.6302 88.7962 16.1827C89.0817 16.726 89.2244 17.3246 89.2244 17.9785C89.2244 18.6139 89.0817 19.2079 88.7962 19.7605C88.5107 20.3038 88.0963 20.7458 87.553 21.0866C87.0188 21.4181 86.3696 21.5839 85.6052 21.5839H85.3842V24.5262H83.5332ZM83.326 20.1058H83.6299V15.8374H83.326C82.976 15.8374 82.6629 15.9295 82.3867 16.1136C82.1196 16.2978 81.9078 16.5511 81.7512 16.8734C81.5947 17.1957 81.5164 17.5641 81.5164 17.9785C81.5164 18.3929 81.5947 18.7613 81.7512 19.0836C81.9078 19.4059 82.1196 19.6591 82.3867 19.8433C82.6537 20.0183 82.9668 20.1058 83.326 20.1058ZM85.3013 20.1058H85.6052C85.9644 20.1058 86.2775 20.0183 86.5446 19.8433C86.8208 19.6591 87.0326 19.4059 87.18 19.0836C87.3365 18.7613 87.4148 18.3929 87.4148 17.9785C87.4148 17.5641 87.3365 17.1957 87.18 16.8734C87.0234 16.5511 86.8116 16.2978 86.5446 16.1136C86.2775 15.9295 85.9644 15.8374 85.6052 15.8374H85.3013V20.1058Z" fill="#8D1BCD"/>
<path d="M90.4555 21.5839V14.3593H92.3065V19.1112L95.5527 14.3455H97.238V21.5839H95.3869V16.9425L92.1822 21.5839H90.4555Z" fill="#8D1BCD"/>
<path d="M98.4022 21.6805V20.0367C98.6232 20.0275 98.8212 19.9723 98.9962 19.871C99.1712 19.7697 99.3231 19.5993 99.452 19.3599C99.5902 19.1112 99.6961 18.7659 99.7697 18.3238C99.8526 17.8818 99.9079 17.3154 99.9355 16.6247L100.032 14.3455H105.461V21.5839H103.61V15.9617H101.662L101.635 16.8043C101.598 17.7529 101.506 18.5402 101.358 19.1665C101.211 19.7927 101.004 20.29 100.737 20.6583C100.479 21.0175 100.157 21.2753 99.7697 21.4319C99.383 21.5885 98.9271 21.6713 98.4022 21.6805Z" fill="#8D1BCD"/>
<path d="M107.142 21.5839V14.3455H108.993V16.6247H110.637C111.503 16.6247 112.166 16.8458 112.626 17.2878C113.087 17.7298 113.317 18.3146 113.317 19.0421C113.317 19.5302 113.22 19.9677 113.027 20.3544C112.834 20.7412 112.548 21.0451 112.171 21.2661C111.793 21.4779 111.323 21.5839 110.762 21.5839H107.142ZM108.993 20.1749H110.472C110.72 20.1749 110.923 20.1242 111.079 20.0229C111.245 19.9216 111.365 19.7881 111.439 19.6223C111.521 19.4565 111.563 19.2678 111.563 19.056C111.563 18.8534 111.526 18.6738 111.452 18.5172C111.379 18.3515 111.259 18.2225 111.093 18.1304C110.937 18.0291 110.725 17.9785 110.458 17.9785H108.993V20.1749Z" fill="#8D1BCD"/>
<path d="M1.25 6.73416C1.25 3.73499 3.75263 1.25 6.90683 1.25H132.093C135.247 1.25 137.75 3.73499 137.75 6.73416V26.9366C137.75 29.9358 135.247 32.4208 132.093 32.4208H6.90683C3.75262 32.4208 1.25 29.9358 1.25 26.9366V6.73416Z" stroke="#8D1BCD" stroke-width="2.5"/>
</svg>
