<svg width="132" height="55" viewBox="0 0 132 55" fill="none" xmlns="http://www.w3.org/2000/svg">
<path d="M26.151 39.4435C26.151 39.9038 26.0399 40.2911 25.8177 40.6056C25.5954 40.9125 25.2943 41.1464 24.9144 41.3075C24.5416 41.4686 24.133 41.5492 23.6885 41.5492H20V33.3797H24.0864C24.4448 33.3797 24.7531 33.4833 25.0112 33.6904C25.2764 33.8898 25.4772 34.1506 25.6134 34.4728C25.7568 34.7873 25.8284 35.1172 25.8284 35.4623C25.8284 35.8536 25.7352 36.2256 25.5488 36.5785C25.3625 36.9313 25.09 37.1921 24.7316 37.3609C25.1689 37.499 25.513 37.7483 25.7639 38.1088C26.022 38.4693 26.151 38.9142 26.151 39.4435ZM24.6563 39.1444C24.6563 38.9372 24.6169 38.7531 24.538 38.5921C24.4592 38.4233 24.3516 38.2929 24.2154 38.2008C24.0864 38.1011 23.9358 38.0513 23.7638 38.0513H21.484V40.2029H23.6885C23.8677 40.2029 24.029 40.1569 24.1724 40.0649C24.3229 39.9651 24.4412 39.8347 24.5273 39.6736C24.6133 39.5126 24.6563 39.3361 24.6563 39.1444ZM21.484 34.7374V36.7971H23.4627C23.6275 36.7971 23.7781 36.7549 23.9143 36.6705C24.0505 36.5861 24.1581 36.4672 24.2369 36.3138C24.3229 36.1604 24.366 35.9763 24.366 35.7615C24.366 35.5544 24.3265 35.3741 24.2477 35.2207C24.176 35.0673 24.0756 34.9484 23.9466 34.864C23.8247 34.7796 23.6849 34.7374 23.5272 34.7374H21.484Z" fill="#8D1BCD"/>
<path d="M29.7716 41.6642C29.3128 41.6642 28.9006 41.5837 28.535 41.4226C28.1694 41.2538 27.8575 41.0237 27.5994 40.7322C27.3485 40.4407 27.1549 40.107 27.0187 39.7312C26.8825 39.3553 26.8144 38.9603 26.8144 38.546C26.8144 38.1241 26.8825 37.7252 27.0187 37.3494C27.1549 36.9735 27.3485 36.6398 27.5994 36.3483C27.8575 36.0568 28.1694 35.8305 28.535 35.6695C28.9006 35.5007 29.3128 35.4163 29.7716 35.4163C30.2305 35.4163 30.6391 35.5007 30.9976 35.6695C31.3632 35.8305 31.675 36.0568 31.9331 36.3483C32.1912 36.6398 32.3848 36.9735 32.5138 37.3494C32.65 37.7252 32.7181 38.1241 32.7181 38.546C32.7181 38.9603 32.65 39.3553 32.5138 39.7312C32.3848 40.107 32.1912 40.4407 31.9331 40.7322C31.6822 41.0237 31.3739 41.2538 31.0083 41.4226C30.6427 41.5837 30.2305 41.6642 29.7716 41.6642ZM28.2984 38.546C28.2984 38.8989 28.3629 39.2134 28.492 39.4895C28.621 39.758 28.7967 39.969 29.0189 40.1224C29.2411 40.2758 29.4921 40.3525 29.7716 40.3525C30.0441 40.3525 30.2914 40.2758 30.5136 40.1224C30.7359 39.9613 30.9115 39.7465 31.0406 39.478C31.1768 39.2019 31.2449 38.8874 31.2449 38.5345C31.2449 38.1893 31.1768 37.8787 31.0406 37.6025C30.9115 37.3264 30.7359 37.1116 30.5136 36.9582C30.2914 36.8047 30.0441 36.728 29.7716 36.728C29.4921 36.728 29.2411 36.8086 29.0189 36.9697C28.7967 37.1231 28.621 37.3379 28.492 37.614C28.3629 37.8825 28.2984 38.1932 28.2984 38.546Z" fill="#8D1BCD"/>
<path d="M35.7017 41.6412C35.0995 41.6412 34.5976 41.5262 34.1962 41.296C33.7947 41.0659 33.4792 40.7476 33.2498 40.341L34.4112 39.7772C34.5331 39.9766 34.6908 40.1339 34.8844 40.249C35.0851 40.3563 35.3324 40.41 35.6264 40.41C35.9633 40.41 36.2214 40.341 36.4006 40.2029C36.587 40.0572 36.6802 39.8692 36.6802 39.6391C36.6802 39.4243 36.605 39.2517 36.4544 39.1213C36.3039 38.9909 36.0816 38.9257 35.7877 38.9257H35.207V37.9707H35.7984C35.9347 37.9707 36.0494 37.9439 36.1426 37.8902C36.2429 37.8288 36.3182 37.7483 36.3684 37.6485C36.4257 37.5488 36.4544 37.4338 36.4544 37.3033C36.4544 37.1116 36.3827 36.9543 36.2393 36.8316C36.1031 36.7089 35.8845 36.6475 35.5834 36.6475C35.3324 36.6475 35.1245 36.6974 34.9597 36.7971C34.8019 36.8968 34.6693 37.0464 34.5618 37.2458L33.4757 36.6245C33.6764 36.2486 33.9632 35.9533 34.336 35.7385C34.7159 35.5237 35.1568 35.4163 35.6586 35.4163C36.0529 35.4163 36.4042 35.4815 36.7125 35.6119C37.0279 35.7423 37.2753 35.9303 37.4545 36.1757C37.6337 36.4212 37.7233 36.728 37.7233 37.0962C37.7233 37.357 37.6624 37.6102 37.5405 37.8556C37.4258 38.1011 37.2358 38.2814 36.9706 38.3964C37.3147 38.5038 37.5728 38.6879 37.7448 38.9487C37.9241 39.2096 38.0137 39.5164 38.0137 39.8692C38.0137 40.2528 37.9133 40.5788 37.7126 40.8473C37.5118 41.1081 37.2394 41.3075 36.8953 41.4456C36.5512 41.576 36.1533 41.6412 35.7017 41.6412Z" fill="#8D1BCD"/>
<path d="M39.0255 41.5492V35.5199H42.1656C42.5527 35.5199 42.8645 35.5889 43.1011 35.727C43.3449 35.8651 43.5241 36.0453 43.6388 36.2678C43.7535 36.4902 43.8109 36.728 43.8109 36.9812C43.8109 37.3187 43.7392 37.614 43.5958 37.8672C43.4596 38.1203 43.2445 38.3159 42.9506 38.454C43.2804 38.5537 43.5492 38.7263 43.7571 38.9718C43.965 39.2096 44.069 39.5241 44.069 39.9153C44.069 40.2911 43.9865 40.6018 43.8216 40.8473C43.6567 41.0851 43.4202 41.2615 43.1119 41.3766C42.8036 41.4916 42.438 41.5492 42.015 41.5492H39.0255ZM40.3912 40.5021H41.972C42.101 40.5021 42.2193 40.4676 42.3269 40.3985C42.4344 40.3295 42.5169 40.2374 42.5742 40.1224C42.6387 40.0073 42.671 39.8808 42.671 39.7427C42.671 39.5969 42.6423 39.4704 42.585 39.363C42.5276 39.2479 42.4452 39.1597 42.3376 39.0983C42.2373 39.0293 42.119 38.9948 41.9828 38.9948H40.3912V40.5021ZM40.3912 38.0282H41.7999C41.929 38.0282 42.0437 37.9937 42.1441 37.9247C42.2444 37.8556 42.3197 37.7636 42.3699 37.6485C42.4272 37.5335 42.4559 37.4069 42.4559 37.2688C42.4559 37.0694 42.395 36.9045 42.2731 36.7741C42.1584 36.636 42.0043 36.5669 41.8107 36.5669H40.3912V38.0282Z" fill="#8D1BCD"/>
<path d="M48.493 41.6642C48.0557 41.6642 47.6686 41.5607 47.3317 41.3536C47.0019 41.1388 46.7438 40.8511 46.5574 40.4906V44H45.1164V35.5199H46.3746V36.5554C46.5897 36.2026 46.8621 35.9264 47.1919 35.727C47.5216 35.5199 47.898 35.4163 48.321 35.4163C48.7009 35.4163 49.0486 35.4969 49.3641 35.6579C49.6867 35.819 49.9663 36.0453 50.2029 36.3368C50.4394 36.6206 50.6222 36.9505 50.7513 37.3264C50.8875 37.6946 50.9556 38.0934 50.9556 38.523C50.9556 39.106 50.8481 39.6353 50.633 40.1109C50.4251 40.5865 50.1348 40.9662 49.762 41.25C49.3963 41.5262 48.9734 41.6642 48.493 41.6642ZM48.0091 40.3525C48.2314 40.3525 48.4321 40.3026 48.6113 40.2029C48.7906 40.1032 48.9447 39.969 49.0737 39.8002C49.2099 39.6238 49.3103 39.4282 49.3748 39.2134C49.4465 38.9909 49.4824 38.7608 49.4824 38.523C49.4824 38.2699 49.4429 38.0359 49.3641 37.8211C49.2924 37.6063 49.1849 37.4184 49.0415 37.2573C48.8981 37.0886 48.7296 36.9582 48.5361 36.8661C48.3497 36.7741 48.1453 36.728 47.9231 36.728C47.7869 36.728 47.6471 36.7549 47.5037 36.8086C47.3675 36.8546 47.2349 36.9236 47.1058 37.0157C46.9768 37.1077 46.8621 37.2151 46.7617 37.3379C46.6685 37.4606 46.6004 37.5948 46.5574 37.7406V39.1559C46.6434 39.3783 46.7581 39.5816 46.9015 39.7657C47.0521 39.9498 47.2241 40.0955 47.4177 40.2029C47.6112 40.3026 47.8084 40.3525 48.0091 40.3525Z" fill="#8D1BCD"/>
<path d="M51.5448 39.7657C51.5448 39.3745 51.6452 39.0331 51.8459 38.7416C52.0538 38.4425 52.3406 38.2123 52.7062 38.0513C53.0718 37.8902 53.4912 37.8096 53.9643 37.8096C54.2009 37.8096 54.4411 37.8288 54.6848 37.8672C54.9286 37.9055 55.1401 37.9669 55.3193 38.0513V37.7291C55.3193 37.3455 55.2118 37.0502 54.9967 36.8431C54.7888 36.636 54.4769 36.5324 54.0611 36.5324C53.7529 36.5324 53.4589 36.59 53.1793 36.705C52.8997 36.8201 52.6058 36.9888 52.2975 37.2113L51.8351 36.1987C52.2079 35.9379 52.5879 35.7423 52.975 35.6119C53.3693 35.4815 53.7815 35.4163 54.2117 35.4163C55.0146 35.4163 55.6383 35.6311 56.0828 36.0607C56.5345 36.4902 56.7603 37.1039 56.7603 37.9017V39.8232C56.7603 39.9843 56.7854 40.0994 56.8356 40.1684C56.8929 40.2374 56.9825 40.2796 57.1044 40.295V41.5492C56.9753 41.5722 56.8571 41.5914 56.7495 41.6067C56.6492 41.622 56.5631 41.6297 56.4914 41.6297C56.2047 41.6297 55.986 41.5607 55.8355 41.4226C55.6921 41.2845 55.6025 41.1158 55.5666 40.9163L55.5344 40.6056C55.2906 40.9432 54.9859 41.204 54.6203 41.3881C54.2547 41.5722 53.8819 41.6642 53.5019 41.6642C53.1292 41.6642 52.7922 41.5837 52.4911 41.4226C52.1972 41.2538 51.9642 41.0275 51.7921 40.7437C51.6272 40.4522 51.5448 40.1262 51.5448 39.7657ZM55.0505 40.0764C55.1293 39.9843 55.1938 39.8923 55.244 39.8002C55.2942 39.7082 55.3193 39.6238 55.3193 39.5471V38.9372C55.1472 38.8605 54.9608 38.803 54.7601 38.7646C54.5594 38.7186 54.3694 38.6956 54.1902 38.6956C53.8174 38.6956 53.5091 38.7838 53.2654 38.9603C53.0288 39.129 52.9105 39.3553 52.9105 39.6391C52.9105 39.7925 52.9499 39.9383 53.0288 40.0764C53.1076 40.2144 53.2223 40.3257 53.3729 40.41C53.5234 40.4944 53.7027 40.5366 53.9106 40.5366C54.1257 40.5366 54.3371 40.4944 54.545 40.41C54.7529 40.318 54.9214 40.2068 55.0505 40.0764Z" fill="#8D1BCD"/>
<path d="M59.345 41.5492V36.8661H57.5599V35.5199H62.5818V36.8661H60.786V41.5492H59.345Z" fill="#8D1BCD"/>
<path d="M68.7792 41.6642C67.8113 41.6642 67.0765 41.3612 66.5747 40.7552C66.08 40.1416 65.8327 39.2479 65.8327 38.0743C65.8327 37.3379 65.8936 36.7165 66.0155 36.2103C66.1374 35.704 66.3166 35.2859 66.5532 34.9561C66.7898 34.6262 67.0873 34.3577 67.4457 34.1506C67.8113 33.9435 68.2307 33.7786 68.7039 33.6559L71.1234 33L71.145 34.2542L68.7577 34.9215C68.4135 35.0289 68.1124 35.1785 67.8544 35.3703C67.5963 35.5544 67.3884 35.796 67.2307 36.0952C67.0801 36.3867 66.9833 36.7549 66.9403 37.1998C67.1554 36.8239 67.4493 36.5286 67.8221 36.3138C68.1949 36.0914 68.6465 35.9801 69.1771 35.9801C69.6789 35.9801 70.1198 36.0952 70.4997 36.3253C70.8797 36.5554 71.1736 36.8738 71.3815 37.2803C71.5966 37.6869 71.7041 38.1586 71.7041 38.6956C71.7041 39.2709 71.5894 39.7849 71.36 40.2374C71.1378 40.6824 70.808 41.0314 70.3707 41.2845C69.9406 41.5377 69.41 41.6642 68.7792 41.6642ZM68.7792 40.3525C69.2237 40.3525 69.5749 40.2106 69.833 39.9268C70.0983 39.6353 70.2309 39.2517 70.2309 38.7762C70.2309 38.3159 70.1019 37.94 69.8438 37.6485C69.5857 37.357 69.2308 37.2113 68.7792 37.2113C68.4996 37.2113 68.2487 37.2727 68.0264 37.3954C67.8113 37.5181 67.6393 37.6984 67.5102 37.9362C67.3812 38.1663 67.3167 38.4463 67.3167 38.7762C67.3167 39.083 67.374 39.3553 67.4887 39.5931C67.6034 39.8309 67.7683 40.0188 67.9834 40.1569C68.2056 40.2873 68.4709 40.3525 68.7792 40.3525Z" fill="#8D1BCD"/>
<path d="M72.662 41.5492V35.5314H74.1029V39.4895L76.63 35.5199H77.942V41.5492H76.501V37.6831L74.0062 41.5492H72.662Z" fill="#8D1BCD"/>
<path d="M78.8483 41.6297V40.2605C79.0204 40.2528 79.1745 40.2068 79.3107 40.1224C79.4469 40.038 79.5652 39.8961 79.6656 39.6967C79.7731 39.4895 79.8555 39.2019 79.9129 38.8337C79.9774 38.4655 80.0204 37.9937 80.042 37.4184L80.1172 35.5199H84.3434V41.5492H82.9024V36.8661H81.3861L81.3646 37.568C81.336 38.3581 81.2643 39.0139 81.1496 39.5356C81.0349 40.0572 80.8736 40.4714 80.6657 40.7782C80.4649 41.0774 80.214 41.2922 79.9129 41.4226C79.6118 41.553 79.2569 41.622 78.8483 41.6297Z" fill="#8D1BCD"/>
<path d="M88.2655 41.6642C87.8139 41.6642 87.4052 41.5837 87.0396 41.4226C86.674 41.2538 86.3621 41.0275 86.104 40.7437C85.8459 40.4522 85.6452 40.1224 85.5018 39.7542C85.3656 39.3783 85.2975 38.9833 85.2975 38.569C85.2975 37.9937 85.4158 37.4683 85.6524 36.9927C85.8961 36.5171 86.2402 36.1374 86.6847 35.8536C87.1364 35.5621 87.6669 35.4163 88.2763 35.4163C88.8928 35.4163 89.4197 35.5621 89.857 35.8536C90.2943 36.1374 90.6277 36.5171 90.8571 36.9927C91.0937 37.4606 91.212 37.9669 91.212 38.5115C91.212 38.6036 91.2084 38.6994 91.2012 38.7992C91.1941 38.8912 91.1869 38.9679 91.1797 39.0293H86.8245C86.8532 39.3361 86.9356 39.6046 87.0719 39.8347C87.2152 40.0649 87.3945 40.2413 87.6095 40.364C87.8318 40.4791 88.0683 40.5366 88.3193 40.5366C88.606 40.5366 88.8749 40.4637 89.1258 40.318C89.3839 40.1646 89.5595 39.9651 89.6527 39.7197L90.8894 40.0879C90.7532 40.3947 90.556 40.667 90.2979 40.9048C90.047 41.1426 89.7495 41.3305 89.4054 41.4686C89.0613 41.599 88.6813 41.6642 88.2655 41.6642ZM86.7923 38.0513H89.7387C89.7101 37.7444 89.6276 37.4798 89.4914 37.2573C89.3624 37.0272 89.1903 36.8508 88.9752 36.728C88.7602 36.5976 88.52 36.5324 88.2547 36.5324C87.9967 36.5324 87.7601 36.5976 87.545 36.728C87.3371 36.8508 87.165 37.0272 87.0288 37.2573C86.8998 37.4798 86.8209 37.7444 86.7923 38.0513Z" fill="#8D1BCD"/>
<path d="M93.391 41.5492V36.8661H91.6059V35.5199H96.6278V36.8661H94.832V41.5492H93.391Z" fill="#8D1BCD"/>
<path d="M100.037 41.6642C99.5787 41.6642 99.1664 41.5837 98.8008 41.4226C98.4352 41.2538 98.1233 41.0237 97.8652 40.7322C97.6143 40.4407 97.4208 40.107 97.2846 39.7312C97.1483 39.3553 97.0802 38.9603 97.0802 38.546C97.0802 38.1241 97.1483 37.7252 97.2846 37.3494C97.4208 36.9735 97.6143 36.6398 97.8652 36.3483C98.1233 36.0568 98.4352 35.8305 98.8008 35.6695C99.1664 35.5007 99.5787 35.4163 100.037 35.4163C100.496 35.4163 100.905 35.5007 101.263 35.6695C101.629 35.8305 101.941 36.0568 102.199 36.3483C102.457 36.6398 102.651 36.9735 102.78 37.3494C102.916 37.7252 102.984 38.1241 102.984 38.546C102.984 38.9603 102.916 39.3553 102.78 39.7312C102.651 40.107 102.457 40.4407 102.199 40.7322C101.948 41.0237 101.64 41.2538 101.274 41.4226C100.909 41.5837 100.496 41.6642 100.037 41.6642ZM98.5642 38.546C98.5642 38.8989 98.6288 39.2134 98.7578 39.4895C98.8868 39.758 99.0625 39.969 99.2847 40.1224C99.507 40.2758 99.7579 40.3525 100.037 40.3525C100.31 40.3525 100.557 40.2758 100.779 40.1224C101.002 39.9613 101.177 39.7465 101.306 39.478C101.443 39.2019 101.511 38.8874 101.511 38.5345C101.511 38.1893 101.443 37.8787 101.306 37.6025C101.177 37.3264 101.002 37.1116 100.779 36.9582C100.557 36.8047 100.31 36.728 100.037 36.728C99.7579 36.728 99.507 36.8086 99.2847 36.9697C99.0625 37.1231 98.8868 37.3379 98.7578 37.614C98.6288 37.8825 98.5642 38.1932 98.5642 38.546Z" fill="#8D1BCD"/>
<path d="M103.957 41.5492V35.5199H107.097C107.484 35.5199 107.796 35.5889 108.032 35.727C108.276 35.8651 108.455 36.0453 108.57 36.2678C108.685 36.4902 108.742 36.728 108.742 36.9812C108.742 37.3187 108.67 37.614 108.527 37.8672C108.391 38.1203 108.176 38.3159 107.882 38.454C108.211 38.5537 108.48 38.7263 108.688 38.9718C108.896 39.2096 109 39.5241 109 39.9153C109 40.2911 108.918 40.6018 108.753 40.8473C108.588 41.0851 108.351 41.2615 108.043 41.3766C107.735 41.4916 107.369 41.5492 106.946 41.5492H103.957ZM105.322 40.5021H106.903C107.032 40.5021 107.15 40.4676 107.258 40.3985C107.365 40.3295 107.448 40.2374 107.505 40.1224C107.57 40.0073 107.602 39.8808 107.602 39.7427C107.602 39.5969 107.573 39.4704 107.516 39.363C107.459 39.2479 107.376 39.1597 107.269 39.0983C107.168 39.0293 107.05 38.9948 106.914 38.9948H105.322V40.5021ZM105.322 38.0282H106.731C106.86 38.0282 106.975 37.9937 107.075 37.9247C107.175 37.8556 107.251 37.7636 107.301 37.6485C107.358 37.5335 107.387 37.4069 107.387 37.2688C107.387 37.0694 107.326 36.9045 107.204 36.7741C107.089 36.636 106.935 36.5669 106.742 36.5669H105.322V38.0282Z" fill="#8D1BCD"/>
<path d="M31 22.1712V13H34.7303C35.1251 13 35.4864 13.0861 35.8141 13.2583C36.1417 13.422 36.4274 13.6459 36.671 13.93C36.9147 14.2056 37.1037 14.5199 37.2381 14.873C37.3725 15.2174 37.4398 15.5705 37.4398 15.9322C37.4398 16.4316 37.3305 16.9096 37.1121 17.366C36.8937 17.8138 36.587 18.1798 36.1921 18.4639C35.7973 18.7395 35.3352 18.8773 34.8059 18.8773H32.1342V22.1712H31ZM32.1342 17.8439H34.7429C35.0537 17.8439 35.3226 17.7578 35.5494 17.5856C35.7847 17.4133 35.9653 17.1808 36.0913 16.8881C36.2257 16.5953 36.2929 16.2766 36.2929 15.9322C36.2929 15.5705 36.2173 15.2476 36.0661 14.9634C35.9149 14.6706 35.7174 14.4424 35.4738 14.2788C35.2302 14.1152 34.9613 14.0334 34.6673 14.0334H32.1342V17.8439Z" fill="#CDCDCD" fill-opacity="0.49"/>
<path d="M38.0848 20.2207C38.0848 19.7901 38.2025 19.4198 38.4377 19.1098C38.6813 18.7912 39.0132 18.5457 39.4333 18.3735C39.8533 18.2013 40.3406 18.1152 40.8951 18.1152C41.1892 18.1152 41.5 18.141 41.8277 18.1927C42.1554 18.2357 42.4452 18.3046 42.6973 18.3994V17.9085C42.6973 17.3918 42.546 16.9871 42.2436 16.6943C41.9411 16.3929 41.5126 16.2422 40.9581 16.2422C40.5969 16.2422 40.2482 16.3111 39.9122 16.4489C39.5845 16.578 39.2358 16.7675 38.8662 17.0172L38.4629 16.2164C38.8914 15.915 39.3199 15.6911 39.7483 15.5447C40.1768 15.3897 40.6221 15.3122 41.0842 15.3122C41.9243 15.3122 42.588 15.5533 43.0753 16.0355C43.5626 16.5091 43.8063 17.1722 43.8063 18.0248V20.8794C43.8063 21.0172 43.8315 21.1206 43.8819 21.1895C43.9407 21.2497 44.0331 21.2842 44.1591 21.2928V22.1712C44.0499 22.1884 43.9533 22.2013 43.8693 22.2099C43.7937 22.2185 43.7306 22.2228 43.6802 22.2228C43.4198 22.2228 43.2224 22.1496 43.0879 22.0032C42.9619 21.8568 42.8905 21.7018 42.8737 21.5382L42.8485 21.1119C42.5628 21.4909 42.189 21.7836 41.7269 21.9903C41.2648 22.197 40.8069 22.3003 40.3532 22.3003C39.9164 22.3003 39.5257 22.2099 39.1812 22.0291C38.8368 21.8396 38.5679 21.5899 38.3747 21.2799C38.1814 20.9612 38.0848 20.6082 38.0848 20.2207ZM42.3696 20.6986C42.4704 20.578 42.5502 20.4575 42.609 20.3369C42.6679 20.2078 42.6973 20.1001 42.6973 20.014V19.1744C42.4368 19.071 42.1638 18.9935 41.8781 18.9419C41.5925 18.8816 41.311 18.8515 41.0338 18.8515C40.4709 18.8515 40.013 18.9677 39.6601 19.2002C39.3157 19.4241 39.1434 19.7341 39.1434 20.1302C39.1434 20.3455 39.198 20.5565 39.3073 20.7632C39.4249 20.9612 39.5929 21.1249 39.8113 21.254C40.0382 21.3832 40.3154 21.4478 40.6431 21.4478C40.9876 21.4478 41.3152 21.3789 41.6261 21.2411C41.9369 21.0947 42.1848 20.9139 42.3696 20.6986Z" fill="#CDCDCD" fill-opacity="0.49"/>
<path d="M47.6337 22.2616C46.9952 22.2616 46.4533 22.141 46.008 21.8999C45.5711 21.6502 45.2351 21.3057 44.9998 20.8665L45.9072 20.4532C46.0584 20.7287 46.2727 20.944 46.5499 21.099C46.8356 21.254 47.18 21.3315 47.5833 21.3315C48.0622 21.3315 48.4402 21.2239 48.7175 21.0086C48.9947 20.7933 49.1334 20.5048 49.1334 20.1432C49.1334 19.8159 49.0199 19.5533 48.7931 19.3552C48.5747 19.1485 48.2638 19.0409 47.8605 19.0323H47.1926V18.2831H47.8983C48.0748 18.2831 48.2302 18.24 48.3646 18.1539C48.5075 18.0592 48.6167 17.9343 48.6923 17.7793C48.7763 17.6243 48.8183 17.4521 48.8183 17.2626C48.8183 16.9612 48.7133 16.7201 48.5033 16.5393C48.2932 16.3498 47.9782 16.2551 47.5581 16.2551C47.2136 16.2551 46.9238 16.324 46.6885 16.4618C46.4617 16.5996 46.2769 16.8062 46.134 17.0818L45.2897 16.6168C45.4997 16.2121 45.8022 15.8977 46.197 15.6738C46.6003 15.4413 47.0708 15.3251 47.6085 15.3251C48.037 15.3251 48.415 15.3983 48.7427 15.5447C49.0788 15.6825 49.3392 15.8848 49.524 16.1518C49.7173 16.4187 49.8139 16.7417 49.8139 17.1206C49.8139 17.4392 49.7383 17.7363 49.587 18.0118C49.4442 18.2788 49.23 18.4812 48.9443 18.6189C49.3392 18.7395 49.6417 18.9505 49.8517 19.2519C50.0617 19.5447 50.1668 19.8934 50.1668 20.2982C50.1668 20.7115 50.0575 21.0646 49.8391 21.3574C49.6207 21.6502 49.3224 21.8741 48.9443 22.0291C48.5663 22.1841 48.1294 22.2616 47.6337 22.2616Z" fill="#CDCDCD" fill-opacity="0.49"/>
<path d="M51.4865 22.1712V15.4284H54.8892C55.284 15.4284 55.6117 15.5102 55.8721 15.6738C56.1326 15.8288 56.3258 16.0312 56.4518 16.2809C56.5863 16.5307 56.6535 16.7976 56.6535 17.0818C56.6535 17.4435 56.5695 17.7707 56.4014 18.0635C56.2334 18.3477 55.9897 18.563 55.6705 18.7094C56.0486 18.8213 56.3552 19.0237 56.5905 19.3165C56.8257 19.6006 56.9433 19.9537 56.9433 20.3757C56.9433 20.7546 56.8551 21.0775 56.6787 21.3445C56.5022 21.6114 56.2544 21.8181 55.9351 21.9645C55.6159 22.1023 55.2462 22.1712 54.8261 22.1712H51.4865ZM52.5451 21.3703H54.8009C55.0026 21.3703 55.1832 21.3186 55.3428 21.2153C55.5109 21.1119 55.6411 20.9742 55.7335 20.8019C55.8259 20.6297 55.8721 20.4489 55.8721 20.2594C55.8721 20.0527 55.8259 19.8676 55.7335 19.704C55.6495 19.5318 55.5277 19.3983 55.368 19.3036C55.2168 19.2002 55.0404 19.1485 54.8387 19.1485H52.5451V21.3703ZM52.5451 18.3994H54.5993C54.8009 18.3994 54.9774 18.3477 55.1286 18.2443C55.2798 18.1324 55.3974 17.9903 55.4815 17.8181C55.5655 17.6459 55.6075 17.465 55.6075 17.2756C55.6075 16.9914 55.5151 16.746 55.3302 16.5393C55.1538 16.3326 54.9228 16.2293 54.6371 16.2293H52.5451V18.3994Z" fill="#CDCDCD" fill-opacity="0.49"/>
<path d="M61.2652 22.3003C60.7695 22.3003 60.3158 22.2099 59.9042 22.0291C59.5009 21.8396 59.148 21.5856 58.8456 21.267C58.5515 20.9397 58.3205 20.5651 58.1524 20.1432C57.9928 19.7212 57.913 19.2734 57.913 18.7998C57.913 18.1625 58.0558 17.5813 58.3415 17.056C58.6271 16.5307 59.022 16.1087 59.5261 15.7901C60.0386 15.4715 60.6225 15.3122 61.2778 15.3122C61.9415 15.3122 62.517 15.4758 63.0043 15.803C63.5 16.1216 63.8823 16.5436 64.1511 17.0689C64.4284 17.5856 64.567 18.1453 64.567 18.7481C64.567 18.8342 64.5628 18.9203 64.5544 19.0065C64.5544 19.084 64.5502 19.1442 64.5418 19.1873H59.085C59.1186 19.6265 59.2362 20.0183 59.4379 20.3628C59.6479 20.6986 59.9168 20.9656 60.2444 21.1636C60.5721 21.3531 60.9249 21.4478 61.303 21.4478C61.7063 21.4478 62.0844 21.3445 62.4372 21.1378C62.7985 20.9311 63.0463 20.6598 63.1807 20.324L64.1385 20.5953C63.9957 20.9225 63.7815 21.2153 63.4958 21.4736C63.2186 21.732 62.8867 21.9343 62.5002 22.0807C62.1222 22.2271 61.7105 22.3003 61.2652 22.3003ZM59.0472 18.3994H63.5336C63.5 17.9602 63.3782 17.5727 63.1681 17.2368C62.9581 16.901 62.6893 16.6383 62.3616 16.4489C62.0339 16.2594 61.6727 16.1647 61.2778 16.1647C60.8913 16.1647 60.5343 16.2594 60.2066 16.4489C59.879 16.6383 59.6101 16.901 59.4001 17.2368C59.1984 17.5727 59.0808 17.9602 59.0472 18.3994Z" fill="#CDCDCD" fill-opacity="0.49"/>
<path d="M69.341 22.3003C68.8033 22.3003 68.3244 22.1625 67.9043 21.887C67.4843 21.6114 67.1524 21.2626 66.9087 20.8407V24.9225H65.7998V15.4284H66.7827V16.6943C67.0432 16.2809 67.3834 15.9494 67.8035 15.6997C68.2236 15.4413 68.6815 15.3122 69.1772 15.3122C69.6308 15.3122 70.0467 15.4069 70.4248 15.5963C70.8028 15.7858 71.1305 16.0441 71.4078 16.3714C71.685 16.6986 71.8992 17.0732 72.0505 17.4952C72.2101 17.9085 72.2899 18.3434 72.2899 18.7998C72.2899 19.437 72.1639 20.0226 71.9118 20.5565C71.6682 21.0904 71.3237 21.5167 70.8785 21.8353C70.4332 22.1453 69.9207 22.3003 69.341 22.3003ZM69.0007 21.3186C69.3284 21.3186 69.6224 21.2497 69.8829 21.1119C70.1517 20.9656 70.3786 20.7761 70.5634 20.5436C70.7566 20.3025 70.9037 20.0312 71.0045 19.7298C71.1053 19.4284 71.1557 19.1184 71.1557 18.7998C71.1557 18.4639 71.0969 18.1453 70.9793 17.8439C70.8701 17.5425 70.7104 17.2756 70.5004 17.0431C70.2988 16.8105 70.0593 16.6297 69.7821 16.5005C69.5132 16.3628 69.2192 16.2939 68.8999 16.2939C68.6983 16.2939 68.4882 16.3326 68.2698 16.4101C68.0598 16.4876 67.8581 16.5996 67.6649 16.746C67.4716 16.8837 67.3078 17.0431 67.1734 17.2239C67.039 17.4047 66.9508 17.5985 66.9087 17.8052V19.7298C67.0348 20.0226 67.2028 20.2896 67.4128 20.5307C67.6229 20.7718 67.8665 20.9656 68.1438 21.1119C68.421 21.2497 68.7067 21.3186 69.0007 21.3186Z" fill="#CDCDCD" fill-opacity="0.49"/>
<path d="M73.6389 22.1712V15.4284H74.7479V18.2185H78.1758V15.4284H79.2848V22.1712H78.1758V19.226H74.7479V22.1712H73.6389Z" fill="#CDCDCD" fill-opacity="0.49"/>
<path d="M81.7687 25C81.6259 25 81.4788 24.9785 81.3276 24.9354C81.1848 24.8924 81.0378 24.8278 80.8865 24.7417L81.2646 23.9666C81.3402 24.0097 81.4116 24.0398 81.4788 24.0571C81.5544 24.0829 81.6259 24.0958 81.6931 24.0958C81.8947 24.0958 82.0837 23.9968 82.2602 23.7987C82.445 23.6093 82.6172 23.3165 82.7769 22.9203L83.0919 22.1066L80.206 15.4284H81.378L83.596 21.0215L85.5998 15.4284H86.6962L83.6212 23.2691C83.47 23.6566 83.2978 23.9752 83.1045 24.225C82.9113 24.4833 82.7012 24.6771 82.4744 24.8062C82.2476 24.9354 82.0123 25 81.7687 25Z" fill="#CDCDCD" fill-opacity="0.49"/>
<path d="M89.4173 22.1712V16.436H87.1489V15.4284H92.7947V16.436H90.5263V22.1712H89.4173Z" fill="#CDCDCD" fill-opacity="0.49"/>
<path d="M93.8961 22.1712V15.4284H95.0051V17.7277H96.6434C97.4163 17.7277 98.0002 17.93 98.3951 18.3348C98.7984 18.7309 99 19.2519 99 19.8977C99 20.3283 98.9118 20.7158 98.7354 21.0603C98.5673 21.4047 98.3153 21.676 97.9792 21.8741C97.6432 22.0721 97.2231 22.1712 96.719 22.1712H93.8961ZM95.0051 21.2799H96.5678C96.8786 21.2799 97.1265 21.2196 97.3113 21.099C97.5045 20.9699 97.6474 20.8019 97.7398 20.5953C97.8322 20.3886 97.8784 20.1647 97.8784 19.9236C97.8784 19.6911 97.8364 19.4758 97.7524 19.2777C97.6684 19.0797 97.5297 18.9203 97.3365 18.7998C97.1433 18.6792 96.8786 18.6189 96.5426 18.6189H95.0051V21.2799Z" fill="#CDCDCD" fill-opacity="0.49"/>
<path d="M0 53H122.15C126.485 53 130 48.4333 130 42.8V12.2C130 6.5667 126.485 2 122.15 2H4.30479e-06" stroke="#8D1BCD" stroke-width="2.5"/>
</svg>
