<svg width="20" height="20" viewBox="0 0 20 20" fill="none" xmlns="http://www.w3.org/2000/svg">
<path fill-rule="evenodd" clip-rule="evenodd" d="M10 1.25C10.2708 1.25 10.5108 1.42433 10.5944 1.68182L12.4854 7.5H18.75C19.024 7.5 19.2659 7.67835 19.347 7.93998C19.4281 8.20161 19.3294 8.48555 19.1035 8.64046L14.0247 12.1231L15.9829 17.9251C16.0698 18.1828 15.9802 18.4671 15.7612 18.6283C15.5422 18.7895 15.2441 18.7907 15.0239 18.6311L10 14.9906L4.97616 18.6311C4.75596 18.7907 4.45787 18.7895 4.23888 18.6283C4.0199 18.4671 3.93028 18.1828 4.01724 17.9251L5.97543 12.1231L0.896592 8.64046C0.670692 8.48555 0.571975 8.20161 0.653061 7.93998C0.734146 7.67835 0.976139 7.5 1.25005 7.5H7.51474L9.40565 1.68182C9.48934 1.42433 9.7293 1.25 10 1.25ZM10 3.89709L8.56319 8.31818C8.47951 8.57567 8.23955 8.75 7.9688 8.75H3.26667L7.07225 11.3595C7.30291 11.5177 7.40042 11.8099 7.31098 12.0749L5.82744 16.4705L9.63331 13.7127C9.8521 13.5541 10.148 13.5541 10.3668 13.7127L14.1727 16.4705L12.6891 12.0749C12.5997 11.8099 12.6972 11.5177 12.9278 11.3595L16.7334 8.75H12.0313C11.7605 8.75 11.5206 8.57567 11.4369 8.31818L10 3.89709Z" fill="#8D1BCD"/>
</svg>
