<svg width="24" height="24" viewBox="0 0 24 24" fill="none" xmlns="http://www.w3.org/2000/svg">
<path d="M0 4.14844V9.64017L0.343219 9.84469C1.11117 10.3023 1.56966 11.108 1.56966 12C1.56966 12.892 1.11117 13.6977 0.343219 14.1553L0 14.3598V19.8516H24V4.14844H0ZM22.5938 18.4453H7.73438V16.4154H6.32812V18.4453H1.40625V15.1332C2.38341 14.3994 2.97591 13.2332 2.97591 12C2.97591 10.7668 2.38341 9.60061 1.40625 8.86683V5.55469H6.32812V7.55334H7.73438V5.55469H22.5938V18.4453Z" fill="#8D1BCD"/>
<path d="M7.73438 9.06567H6.32812V11.2285H7.73438V9.06567Z" fill="#8D1BCD"/>
<path d="M7.73438 12.7406H6.32812V14.9034H7.73438V12.7406Z" fill="#8D1BCD"/>
<path d="M12.6929 6.69189C11.515 6.69189 10.5566 7.65021 10.5566 8.82808C10.5566 10.006 11.515 10.9643 12.6929 10.9643C13.8708 10.9643 14.8291 10.006 14.8291 8.82808C14.8291 7.65021 13.8708 6.69189 12.6929 6.69189ZM12.6929 9.55807C12.2904 9.55807 11.9629 9.2306 11.9629 8.82808C11.9629 8.42561 12.2904 8.09814 12.6929 8.09814C13.0954 8.09814 13.4229 8.42561 13.4229 8.82808C13.4229 9.2306 13.0954 9.55807 12.6929 9.55807Z" fill="#8D1BCD"/>
<path d="M17.6382 13.0356C16.4603 13.0356 15.502 13.994 15.502 15.1719C15.502 16.3498 16.4603 17.3081 17.6382 17.3081C18.8161 17.3081 19.7744 16.3498 19.7744 15.1719C19.7744 13.994 18.8161 13.0356 17.6382 13.0356ZM17.6382 15.9018C17.2357 15.9018 16.9082 15.5743 16.9082 15.1719C16.9082 14.7694 17.2357 14.4419 17.6382 14.4419C18.0407 14.4419 18.3682 14.7694 18.3682 15.1719C18.3681 15.5743 18.0407 15.9018 17.6382 15.9018Z" fill="#8D1BCD"/>
<path d="M18.2979 6.6853L10.9102 16.4669L12.0324 17.3145L19.4201 7.53287L18.2979 6.6853Z" fill="#8D1BCD"/>
</svg>
