<svg width="70" height="70" viewBox="0 0 70 70" fill="none" xmlns="http://www.w3.org/2000/svg">
<path fill-rule="evenodd" clip-rule="evenodd" d="M69.5995 23.8014C70.1334 23.2675 70.1334 22.4019 69.5995 21.8679L65.5812 17.8495C65.3249 17.5931 64.9771 17.449 64.6145 17.449C64.2519 17.449 63.9041 17.5931 63.6477 17.8496C63.0679 18.4294 62.2971 18.7487 61.4771 18.7487C60.657 18.7487 59.8861 18.4294 59.3062 17.8495C58.7264 17.2697 58.407 16.4987 58.407 15.6787C58.407 14.8586 58.7264 14.0877 59.3062 13.5078C59.5627 13.2514 59.7067 12.9037 59.7067 12.5411C59.7067 12.1785 59.5626 11.8308 59.3062 11.5744L55.2877 7.5562C54.7539 7.02272 53.8883 7.02245 53.3542 7.5562C52.7744 8.13602 52.0034 8.4554 51.1834 8.4554C50.3633 8.4554 49.5924 8.13602 49.0126 7.5562C48.4787 7.02245 47.613 7.02245 47.0791 7.5562L43.642 10.9933L40.5904 7.94174C40.3341 7.6854 39.9864 7.54129 39.6237 7.54129C39.2611 7.54129 38.9133 7.6854 38.6569 7.94174C38.077 8.5217 37.3061 8.84094 36.4861 8.84094C35.6661 8.84094 34.8951 8.5217 34.3153 7.94174C34.0589 7.6854 33.7113 7.54129 33.3485 7.54129C32.986 7.54129 32.6382 7.6854 32.3818 7.94174L20.2581 20.0656C19.7242 20.5994 19.7242 21.4651 20.2581 21.9992C20.5251 22.266 20.875 22.3996 21.2249 22.3996C21.5747 22.3996 21.9247 22.266 22.1916 21.9992L33.4635 10.7271C35.3121 11.8545 37.66 11.8545 39.5087 10.7271L41.7085 12.9271L15.0977 39.5377C14.8412 39.7942 14.6972 40.1419 14.6972 40.5045C14.6972 40.867 14.8413 41.2149 15.0977 41.4712C15.6775 42.051 15.9969 42.822 15.9969 43.642C15.9969 44.4621 15.6775 45.233 15.0977 45.8128C14.8412 46.0693 14.6972 46.417 14.6972 46.7796C14.6972 47.1422 14.8413 47.4898 15.0977 47.7463L19.1161 51.7646C19.65 52.2984 20.5156 52.2984 21.0496 51.7646C21.6294 51.1848 22.4004 50.8654 23.2203 50.8654C24.0403 50.8654 24.8113 51.1848 25.3912 51.7646C26.5881 52.9615 26.5881 54.9089 25.3915 56.106L25.3912 56.1063L21.839 59.6582C19.9904 58.5308 17.6426 58.5307 15.794 59.6584L13.4791 57.3434C14.8413 55.1094 14.5575 52.1469 12.6273 50.2166C10.6973 48.2865 7.73442 48.0028 5.50043 49.3649L3.18551 47.05C4.3129 45.2014 4.3129 42.8536 3.18551 41.0049L14.4574 29.7329C14.9913 29.1991 14.9913 28.3333 14.4574 27.7993C13.9235 27.2656 13.0578 27.2656 12.524 27.7993L0.400415 39.9231C-0.133472 40.457 -0.133472 41.3227 0.400415 41.8567C1.59739 43.0537 1.59725 45.0014 0.400415 46.1985C-0.133472 46.7324 -0.133472 47.598 0.400415 48.132L4.41885 52.1503C4.95274 52.6841 5.81844 52.6841 6.35233 52.1503C6.93215 51.5705 7.70311 51.2511 8.52315 51.2511C9.34319 51.2511 10.1141 51.5705 10.6938 52.1502C11.8908 53.3473 11.8908 55.295 10.694 56.4918C10.1601 57.0257 10.1601 57.8914 10.6938 58.4254L14.7123 62.444C14.9688 62.7003 15.3164 62.8444 15.679 62.8444C16.0416 62.8444 16.3894 62.7003 16.6457 62.4439C17.8427 61.2469 19.7903 61.247 20.9873 62.4439C21.5211 62.9776 22.3867 62.9776 22.9207 62.4439L26.3578 59.0069L29.4095 62.0584C29.6659 62.3148 30.0137 62.4589 30.3763 62.4589C30.7389 62.4589 31.0867 62.3148 31.343 62.0583C31.9228 61.4785 32.6938 61.1592 33.5137 61.1592C34.3337 61.1592 35.1047 61.4785 35.6845 62.0583C36.2184 62.5921 37.0841 62.5921 37.618 62.0583L69.5995 30.0768C70.1334 29.5429 70.1334 28.6772 69.5995 28.1432C68.4026 26.9462 68.4026 24.9985 69.5995 23.8014ZM66.8143 28.9949L62.5226 33.2867L61.1511 31.9152C60.6174 31.3816 59.7517 31.3816 59.2177 31.9152C58.6838 32.4491 58.6838 33.3147 59.2177 33.8487L60.5891 35.2203L36.5374 59.2717C35.636 58.7196 34.5976 58.4247 33.5137 58.4247C32.4299 58.4247 31.3914 58.7198 30.49 59.2718L28.1763 56.958C29.5386 54.724 29.2548 51.7613 27.3246 49.8311C26.2282 48.7348 24.7707 48.1312 23.2203 48.1312C22.1365 48.1312 21.098 48.4262 20.1966 48.9782L17.884 46.6657C18.4361 45.7643 18.7311 44.7259 18.7311 43.642C18.7311 42.5581 18.4361 41.5197 17.884 40.6183L41.9356 16.5666L43.3071 17.9381C43.5742 18.2049 43.924 18.3385 44.2739 18.3385C44.6237 18.3385 44.9737 18.2049 45.2406 17.9381C45.7745 17.404 45.7745 16.5385 45.2406 16.0045L43.8692 14.6332L44.6083 13.8939L44.6088 13.8935C44.6091 13.8934 44.6094 13.893 44.6094 13.893L48.1598 10.3425C49.0612 10.8946 50.0997 11.1895 51.1835 11.1895C52.2674 11.1895 53.3058 10.8946 54.2072 10.3424L56.5198 12.655C55.9676 13.5565 55.6727 14.5948 55.6727 15.6787C55.6727 17.2292 56.2764 18.6867 57.3728 19.7831C58.4691 20.8794 59.9267 21.4832 61.4771 21.4832C62.5608 21.4832 63.5993 21.1882 64.5007 20.6361L66.8144 22.9498C65.6869 24.7985 65.6869 27.1462 66.8143 28.9949Z" fill="#8D1BCD"/>
<path fill-rule="evenodd" clip-rule="evenodd" d="M48.9862 19.7494C48.4523 19.2155 47.5868 19.2155 47.0528 19.7493C46.5189 20.2832 46.5189 21.1487 47.0528 21.6828L49.3909 24.0209C49.6579 24.2879 50.0078 24.4215 50.3577 24.4215C50.7075 24.4215 51.0574 24.2879 51.3244 24.0211C51.8583 23.4872 51.8583 22.6216 51.3245 22.0876L48.9862 19.7494Z" fill="#8D1BCD"/>
<path fill-rule="evenodd" clip-rule="evenodd" d="M55.0683 25.8322C54.5344 25.2984 53.6687 25.2984 53.1348 25.8322C52.6009 26.3661 52.6009 27.2318 53.1348 27.7658L55.4731 30.1041C55.74 30.371 56.09 30.5046 56.4398 30.5046C56.7897 30.5046 57.1396 30.371 57.4066 30.1041C57.9405 29.5702 57.9405 28.7045 57.4066 28.1705L55.0683 25.8322Z" fill="#8D1BCD"/>
<path fill-rule="evenodd" clip-rule="evenodd" d="M39.1218 29.5926C38.588 29.059 37.7222 29.0589 37.1884 29.5926L27.0977 39.6832C26.5638 40.2171 26.5638 41.0828 27.0976 41.6168C27.3646 41.8837 27.7144 42.0172 28.0643 42.0172C28.4142 42.0172 28.7642 41.8837 29.031 41.6168L39.1217 31.5263C39.6557 30.9922 39.6557 30.1265 39.1218 29.5926Z" fill="#8D1BCD"/>
<path fill-rule="evenodd" clip-rule="evenodd" d="M48.1615 35.5015L35.5391 48.1237C35.0052 48.6576 35.0052 49.5233 35.5391 50.0574C35.8061 50.3242 36.1558 50.4578 36.5058 50.4578C36.8557 50.4578 37.2057 50.3242 37.4726 50.0574L50.095 37.4351C50.6289 36.9012 50.6289 36.0355 50.095 35.5015C49.561 34.9678 48.6954 34.9677 48.1615 35.5015Z" fill="#8D1BCD"/>
<path fill-rule="evenodd" clip-rule="evenodd" d="M47.6358 29.5196C47.1019 28.9858 46.2362 28.9858 45.7023 29.5196L31.3184 43.9036C30.7845 44.4375 30.7845 45.3032 31.3184 45.8372C31.5854 46.1041 31.9353 46.2377 32.2851 46.2377C32.635 46.2377 32.985 46.1041 33.2519 45.8372L47.6359 31.4532C48.1697 30.9192 48.1697 30.0535 47.6358 29.5196Z" fill="#8D1BCD"/>
<path fill-rule="evenodd" clip-rule="evenodd" d="M17.3574 26.2665C18.1105 26.2665 18.7246 25.6523 18.7246 24.8993C18.7246 24.1462 18.1105 23.5321 17.3574 23.5321C16.6044 23.5321 15.9902 24.1462 15.9902 24.8993C15.9902 25.6522 16.6044 26.2665 17.3574 26.2665Z" fill="#8D1BCD"/>
</svg>
