<svg width="70" height="70" viewBox="0 0 70 70" fill="none" xmlns="http://www.w3.org/2000/svg">
<g clip-path="url(#clip0_1637_5594)">
<path d="M63.9506 15.3252C65.6137 13.9256 67.3281 12.5346 69.0839 11.183C69.6535 10.7406 69.8448 9.96544 69.5461 9.30881C69.2468 8.65279 68.5359 8.28807 67.8286 8.42816C67.583 8.47753 65.0429 9.02863 60.5174 11.046C47.6539 -2.65802 26.2622 -3.75528 12.0645 8.56146C-2.13393 20.8776 -4.06926 42.2094 7.68096 56.8799C19.4312 71.5504 40.6704 74.3207 55.7908 63.1549C70.9106 51.9891 74.5116 30.8745 63.9475 15.3283L63.9506 15.3252ZM58.5266 15.453C58.9339 15.2456 59.3295 15.0494 59.7133 14.8649C45.4896 27.3248 35.2588 40.645 32.0121 45.0735L19.5114 32.3476L29.7891 34.8365C30.2773 34.955 30.792 34.8303 31.1721 34.502C43.1655 24.1268 52.6681 18.4165 58.5266 15.453ZM36.4671 66.9669V64.4281C36.4671 63.569 35.771 62.8723 34.912 62.8723C34.0523 62.8723 33.3562 63.569 33.3562 64.4281V66.9682C16.9589 66.1782 3.76155 52.9809 2.97285 36.5836H5.51174C6.37079 36.5836 7.06691 35.8869 7.06691 35.0278C7.06691 34.1688 6.37079 33.4727 5.51174 33.4727H2.97285C3.76155 17.0754 16.9589 3.87803 33.3562 3.08934V5.62822C33.3562 6.48727 34.0523 7.1834 34.912 7.1834C35.771 7.1834 36.4671 6.48727 36.4671 5.62822V3.09119C44.4133 3.48184 51.9288 6.81744 57.5496 12.4475C51.0056 15.714 41.5443 21.4978 29.741 31.6262L14.9459 28.0481C14.2707 27.8839 13.5684 28.1881 13.2259 28.7923C12.8828 29.3965 12.9828 30.1556 13.4697 30.6505L31.0882 48.5721C31.3801 48.8701 31.78 49.0386 32.1972 49.0386C32.2422 49.0411 32.2873 49.0411 32.3323 49.0386C32.7952 48.9985 33.2155 48.7541 33.479 48.3715C33.6049 48.1894 44.6991 32.194 61.574 17.3772C64.7627 22.1631 66.587 27.7278 66.8505 33.4727H64.3116C63.4525 33.4727 62.7564 34.1688 62.7564 35.0278C62.7564 35.8869 63.4525 36.5836 64.3116 36.5836H66.8517C66.0618 52.9809 52.8644 66.1782 36.4671 66.9669Z" fill="#8D1BCD"/>
</g>
<defs>
<clipPath id="clip0_1637_5594">
<rect width="70" height="70" fill="white"/>
</clipPath>
</defs>
</svg>
