<svg width="17" height="16" viewBox="0 0 17 16" fill="none" xmlns="http://www.w3.org/2000/svg">
<path d="M4.25187 14.4866L14.1685 9.15329C14.3866 9.037 14.5679 8.86836 14.6941 8.66457C14.8202 8.46078 14.8867 8.22915 14.8867 7.99329C14.8867 7.75743 14.8202 7.52579 14.6941 7.322C14.5679 7.11822 14.3866 6.94958 14.1685 6.83329L4.25187 1.49995C4.03558 1.38241 3.79011 1.32077 3.54035 1.32129C3.29058 1.32181 3.04541 1.38447 2.82967 1.50292C2.61393 1.62136 2.43529 1.79138 2.31187 1.99575C2.18845 2.20011 2.12463 2.43156 2.12687 2.66662V13.3333C2.12713 13.5672 2.19277 13.797 2.31722 13.9995C2.44166 14.202 2.62052 14.3701 2.83584 14.487C3.05115 14.6038 3.29535 14.6653 3.5439 14.6653C3.79246 14.6652 4.03662 14.6036 4.25187 14.4866Z" stroke="#7A24B7" stroke-linecap="round" stroke-linejoin="round"/>
</svg>
