<svg width="21" height="20" viewBox="0 0 21 20" fill="none" xmlns="http://www.w3.org/2000/svg">
<g clip-path="url(#clip0_522_1380)">
<path d="M19.2845 2.49959C18.4865 3.06249 17.6029 3.49302 16.6678 3.77459C16.166 3.19752 15.499 2.7885 14.757 2.60286C14.0151 2.41722 13.2341 2.46392 12.5196 2.73664C11.8051 3.00935 11.1915 3.49493 10.762 4.12769C10.3324 4.76045 10.1076 5.50987 10.1178 6.27459V7.10792C8.65337 7.1459 7.20223 6.8211 5.89368 6.16246C4.58512 5.50382 3.45977 4.53179 2.61784 3.33292C2.61784 3.33292 -0.715495 10.8329 6.78451 14.1663C5.06828 15.3312 3.0238 15.9154 0.951172 15.8329C8.45117 19.9996 17.6178 15.8329 17.6178 6.24959C17.6171 6.01747 17.5948 5.78592 17.5512 5.55792C18.4017 4.71917 19.0019 3.66018 19.2845 2.49959V2.49959Z" stroke="white" stroke-linecap="round" stroke-linejoin="round"/>
</g>
<defs>
<clipPath id="clip0_522_1380">
<rect width="20" height="20" fill="white" transform="translate(0.117188)"/>
</clipPath>
</defs>
</svg>
