<svg width="21" height="20" viewBox="0 0 21 20" fill="none" xmlns="http://www.w3.org/2000/svg">
<g clip-path="url(#clip0_522_1374)">
<path d="M18.8997 5.34967C18.8007 4.95418 18.5991 4.59182 18.3152 4.29918C18.0314 4.00654 17.6753 3.794 17.283 3.68301C15.8497 3.33301 10.1164 3.33301 10.1164 3.33301C10.1164 3.33301 4.38303 3.33301 2.9497 3.71634C2.5574 3.82733 2.20134 4.03987 1.91748 4.33251C1.63363 4.62515 1.43202 4.98752 1.33303 5.38301C1.07071 6.83764 0.942392 8.31327 0.949695 9.79134C0.940345 11.2805 1.06867 12.7674 1.33303 14.233C1.44216 14.6162 1.64828 14.9648 1.93148 15.2451C2.21468 15.5254 2.56538 15.7279 2.9497 15.833C4.38303 16.2163 10.1164 16.2163 10.1164 16.2163C10.1164 16.2163 15.8497 16.2163 17.283 15.833C17.6753 15.722 18.0314 15.5095 18.3152 15.2168C18.5991 14.9242 18.8007 14.5618 18.8997 14.1663C19.16 12.7227 19.2883 11.2583 19.283 9.79134C19.2924 8.30214 19.1641 6.81526 18.8997 5.34967V5.34967Z" stroke="white" stroke-linecap="round" stroke-linejoin="round"/>
<path d="M8.24219 12.5164L13.0339 9.79141L8.24219 7.06641V12.5164Z" stroke="white" stroke-linecap="round" stroke-linejoin="round"/>
</g>
<defs>
<clipPath id="clip0_522_1374">
<rect width="20" height="20" fill="white" transform="translate(0.117188)"/>
</clipPath>
</defs>
</svg>
